<?xml version="1.0" encoding="UTF-8"?>
<svg enable-background="new 0 0 64 64" version="1.1" viewBox="0 0 64 64" xmlns="http://www.w3.org/2000/svg" xmlns:cc="http://creativecommons.org/ns#" xmlns:dc="http://purl.org/dc/elements/1.1/" xmlns:osb="http://www.openswatchbook.org/uri/2009/osb" xmlns:rdf="http://www.w3.org/1999/02/22-rdf-syntax-ns#">
  <metadata>
    <rdf:RDF>
      <cc:Work rdf:about="">
        <dc:format>image/svg+xml</dc:format>
        <dc:type rdf:resource="http://purl.org/dc/dcmitype/StillImage"/>
        <dc:title/>
      </cc:Work>
    </rdf:RDF>
  </metadata>
  <g transform="matrix(1.4375 0 0 1.4545 -14 -13.091)" fill="#c0c0c0">
    <g fill="#c0c0c0">
      <path d="m46 15h-28c-1.1 0-2 0.9-2 2v34c0 1.1 0.9 2 2 2h28c1.1 0 2-0.9 2-2v-34c0-1.1-0.9-2-2-2z" fill="#c0c0c0"/>
    </g>
  </g>
  <g transform="matrix(1.4375 0 0 1.4545 -14 -13.091)">
    <path d="m45 19v30c0 0.5-0.5 1-1 1h-24c-0.5 0-1-0.5-1-1v-30c0-0.5 0.5-1 1-1h24c0.5 0 1 0.5 1 1z" fill="#fff"/>
  </g>
  <g transform="matrix(1.4375 0 0 1.4545 -14 -13.091)" fill="#808080">
    <g fill="#808080">
      <path d="m36 13c0-2.4-1.6-4-4-4s-4 1.6-4 4h-5v7h18v-7zm-4 1.5c-0.8 0-1.5-0.7-1.5-1.5s0.7-1.5 1.5-1.5 1.5 0.7 1.5 1.5-0.7 1.5-1.5 1.5z" fill="#808080"/>
    </g>
  </g>
  <g transform="matrix(1.4375 0 0 1.4545 -14 -13.091)" fill="#c0c0c0">
    <g fill="#c0c0c0">
      <rect x="23" y="17.2" width="18" height="2.8"/>
      <path d="m40.1 24c0.5 0 0.9 0.5 0.9 1s-0.4 1-0.9 1h-16.2c-0.5 0-0.9-0.5-0.9-1s0.4-1 0.9-1z"/>
    </g>
  </g>
  <g transform="matrix(1.4375 0 0 1.4545 -14 -13.091)" fill="#e1e1e1">
    <g fill="#e1e1e1">
      <path d="m40.1 29c0.5 0 0.9 0.5 0.9 1s-0.4 1-0.9 1h-16.2c-0.5 0-0.9-0.5-0.9-1s0.4-1 0.9-1z" fill="#c0c0c0"/>
    </g>
  </g>
  <g transform="matrix(1.4375 0 0 1.4545 -14 -13.091)" fill="#c0c0c0">
    <g fill="#c0c0c0">
      <path d="m40.1 34c0.5 0 0.9 0.5 0.9 1s-0.4 1-0.9 1h-16.2c-0.5 0-0.9-0.5-0.9-1s0.4-1 0.9-1z"/>
      <path d="m40.1 39c0.5 0 0.9 0.5 0.9 1s-0.4 1-0.9 1h-16.2c-0.5 0-0.9-0.5-0.9-1s0.4-1 0.9-1z"/>
    </g>
  </g>
  <g transform="matrix(2.3438 0 0 3.625 -43.25 -85.5)">
    <polygon points="24 35 26 33 29 36 38 28 40 30 29 40" fill="#29ce7f"/>
  </g>
</svg>
